<?xml version="1.0" encoding="UTF-8" standalone="no"?>
<!-- Created with Inkscape (http://www.inkscape.org/) -->

<svg
   xmlns:dc="http://purl.org/dc/elements/1.1/"
   xmlns:cc="http://creativecommons.org/ns#"
   xmlns:rdf="http://www.w3.org/1999/02/22-rdf-syntax-ns#"
   xmlns:svg="http://www.w3.org/2000/svg"
   xmlns="http://www.w3.org/2000/svg"
   xmlns:sodipodi="http://sodipodi.sourceforge.net/DTD/sodipodi-0.dtd"
   xmlns:inkscape="http://www.inkscape.org/namespaces/inkscape"
   width="150mm"
   height="150mm"
   viewBox="0 0 531.49606 531.49606"
   id="svg2"
   version="1.1"
   inkscape:version="0.91 r13725"
   sodipodi:docname="precious-plastic-dublin-logo.svg"
   inkscape:export-filename="E:\projects\precious-plastic\logo\precious-plastic-logo-48.png"
   inkscape:export-xdpi="8.1280003"
   inkscape:export-ydpi="8.1280003">
  <defs
     id="defs4" />
  <sodipodi:namedview
     id="base"
     pagecolor="#ffffff"
     bordercolor="#666666"
     borderopacity="1.0"
     inkscape:pageopacity="0.0"
     inkscape:pageshadow="2"
     inkscape:zoom="1.22"
     inkscape:cx="416.2371"
     inkscape:cy="264.44453"
     inkscape:document-units="px"
     inkscape:current-layer="layer1"
     showgrid="false"
     showguides="true"
     inkscape:guide-bbox="true"
     inkscape:window-width="1440"
     inkscape:window-height="838"
     inkscape:window-x="1432"
     inkscape:window-y="-8"
     inkscape:window-maximized="1" />
  <metadata
     id="metadata7">
    <rdf:RDF>
      <cc:Work
         rdf:about="">
        <dc:format>image/svg+xml</dc:format>
        <dc:type
           rdf:resource="http://purl.org/dc/dcmitype/StillImage" />
        <dc:title></dc:title>
      </cc:Work>
    </rdf:RDF>
  </metadata>
  <g
     inkscape:label="Layer 1"
     inkscape:groupmode="layer"
     id="layer1"
     transform="translate(0,-520.86614)">
    <path
       style="fill:#ffffff;fill-rule:evenodd;stroke:none;stroke-width:1px;stroke-linecap:butt;stroke-linejoin:miter;stroke-opacity:1;fill-opacity:1"
       d="m 61.998113,641.86143 20.203051,-31.441 27.526656,-22.34962 35.35534,-21.21321 45.3306,-18.05647 45.07805,-9.21764 32.70369,-3.40927 30.55712,0.50508 37.1231,7.3236 26.01143,7.82869 39.14341,18.05647 25.63262,20.32932 9.72272,10.2278 17.5514,13.38452 16.28871,20.96066 12.50064,20.20305 8.08122,12.87945 10.6066,28.28427 11.74302,34.59773 4.9245,28.66307 3.40926,39.26968 -2.0203,36.61803 -4.79823,22.98097 -9.59645,23.86486 -11.61675,22.34962 -9.72272,20.58186 -22.09709,30.30458 -20.70812,23.61231 -15.15229,13.8896 -28.66308,15.90986 -19.06663,11.4905 -33.0825,13.3845 -22.09708,5.6822 -30.80965,4.2931 -29.04189,0.7576 -34.47146,-2.7779 -30.80965,-4.0406 -34.34519,-13.2583 L 116.79889,997.30886 91.545075,979.88373 70.331871,952.73588 53.538085,925.20922 36.744299,893.89449 25.380083,868.89322 l -9.975257,-37.24938 -2.65165,-27.14785 0.631345,-23.99112 3.661803,-38.13326 7.197337,-25.63262 14.89975,-35.22907 14.773481,-27.02158 z"
       id="path4995"
       inkscape:connector-curvature="0" />
    <path
       style="fill:#b7d4e2;fill-opacity:1;fill-rule:evenodd;stroke:none;stroke-width:1px;stroke-linecap:butt;stroke-linejoin:miter;stroke-opacity:1"
       d="m 259.71095,986.29783 17.67767,0.75761 15.40483,-1.26269 21.97082,-3.53553 25.50635,-8.33376 25.00128,-12.62691 27.02158,-15.9099 30.30457,-32.57742 11.11168,-15.40483 18.68782,-37.1231 7.32361,-21.97082 4.29315,-25.00128 0,-27.02158 -3.78807,-32.57742 -11.61676,-34.34518 -8.83883,-24.24366 -14.64722,-23.73859 -13.38452,-18.18275 -14.89975,-11.36421 -13.13198,-12.87945 -14.64721,-10.10152 -25.75889,-11.36422 -27.27412,-9.34391 -23.48605,-4.04061 -36.36549,0.50508 -21.2132,3.03045 -24.4962,4.54569 -27.7792,10.85914 -22.22335,10.85914 -21.21321,14.14214 -14.14213,12.87944 -9.59645,12.87945 -13.13198,20.70812 -10.354071,18.43529 -10.606604,25.50635 -6.81853,19.69797 -4.29315,36.3655 1.01015,22.72843 1.01016,17.42513 6.06091,19.95051 9.09138,25.50635 13.889595,26.01143 22.22336,32.57742 11.36422,11.86929 29.54696,18.18275 22.98097,12.87945 24.24366,9.84898 15.9099,2.52538 z"
       id="path4844"
       inkscape:connector-curvature="0" />
    <path
       style="fill:#e2e3e5;fill-opacity:1;fill-rule:evenodd;stroke:none;stroke-width:1px;stroke-linecap:butt;stroke-linejoin:miter;stroke-opacity:1"
       d="m 255.73348,628.83009 c 0.25254,0.18941 2.39911,3.53554 2.39911,3.53554 l -5.42957,6.56599 -2.52538,3.72494 c 0,0 -1.6415,5.4927 -1.51523,6.18718 0.12627,0.69448 0.25254,5.49271 0.25254,5.87151 0,0.37881 1.13642,7.63928 1.13642,7.63928 l 0.44194,8.01809 -0.44194,9.02824 -2.27284,9.65958 -1.6415,4.67195 -3.21986,6.9448 -3.85121,5.1139 -5.17703,5.68211 -4.79822,3.97747 -6.18719,3.15673 -6.50286,2.46225 -5.3033,0.82075 -9.28077,1.32582 -6.25032,-0.50507 -4.48255,-1.4521 -11.23795,-2.27284 -16.79379,-1.95717 -9.02824,-0.0631 -11.04854,1.57837 -9.91212,1.38896 -7.32361,-0.12627 -2.71478,-0.56821 -3.85121,-2.20971 -2.20971,-2.14658 -8.90197,5.36644 -2.77792,0 -2.46224,-1.4521 -1.32583,-2.2097 0.0631,-2.20971 0.82075,-1.38896 29.04188,-10.79601 24.24366,-7.44987 11.04855,-6.31346 16.85692,-10.22779 21.84455,-12.94258 8.14435,-5.17703 5.87151,-4.98763 2.96733,-4.10374 2.33597,-7.38675 0.69448,-7.89181 1.32583,-7.1342 2.90419,-5.24017 2.90419,-1.8309 3.15672,-0.69448 4.35629,-0.0631 5.4927,1.13642 3.97748,1.51523 3.8512,3.03046 2.58852,2.52538 z"
       id="path4862"
       inkscape:connector-curvature="0" />
    <path
       style="fill:#ffffff;fill-opacity:1;fill-rule:evenodd;stroke:none;stroke-width:1px;stroke-linecap:butt;stroke-linejoin:miter;stroke-opacity:1"
       d="m 235.04114,625.4524 2.43068,0.0473 1.53101,0.45772 c 0,0 0.89967,0.66291 0.94702,0.80497 0.0473,0.14205 0.2841,1.10485 0.2841,1.10485 0,0 -0.67869,1.57836 -0.80496,1.7362 -0.12627,0.15784 -3.23565,1.04172 -3.45662,1.0575 -0.22097,0.0158 -2.36754,-0.93123 -2.4149,-1.2469 -0.0473,-0.31568 0.50508,-2.57274 0.56822,-2.65165 0.0631,-0.0789 0.91545,-1.31004 0.91545,-1.31004 z"
       id="path4993"
       inkscape:connector-curvature="0" />
    <path
       style="fill:#ffffff;fill-opacity:1;fill-rule:evenodd;stroke:none;stroke-width:1px;stroke-linecap:butt;stroke-linejoin:miter;stroke-opacity:1"
       d="m 274.86324,960.03386 7.32361,-4.29315 7.3236,-1.51523 7.82869,1.26269 0.75761,-16.92005 -1.01015,-11.86929 -11.61676,-3.53554 -7.82868,-1.76776 -6.31345,1.01015 -1.01015,19.1929 z"
       id="path4860"
       inkscape:connector-curvature="0" />
    <path
       style="fill:#ffffff;fill-opacity:1;fill-rule:evenodd;stroke:none;stroke-width:1px;stroke-linecap:butt;stroke-linejoin:miter;stroke-opacity:1"
       d="m 209.46429,784.86217 25.17857,-1.60714 19.64286,0.71428 7.32143,-0.71428 17.67857,-4.64286 8.57143,-2.14286 12.14286,-0.17857 11.60714,1.96429 9.28571,4.28571 10,7.32143 8.92858,3.92857 4.10714,-0.53571 5,1.25 16.07143,1.07142 6.07143,1.96429 16.78571,0.35714 4.10714,1.42857 2.85715,5.17858 1.42857,9.46428 1.25,2.32143 3.03571,4.46429 3.75,9.64285 5.89286,11.96429 0.89286,4.82143 -0.53572,7.67857 0.53572,11.78571 -1.07143,6.25 -2.85715,8.75 -2.32142,0.71429 -11.42858,1.07143 -5,1.60714 -6.78571,-1.07143 -13.39286,-5 -10.17857,-2.67857 -16.25,-1.07143 -15.53571,-1.42857 -11.60715,-2.14286 -30.35714,-0.35714 -36.60714,1.25 -11.96429,0.53571 -4.82143,1.42858 -3.92857,-3.21429 -1.07143,-3.57143 1.96429,-2.85714 9.64286,-0.53572 6.96428,1.25 13.75,-0.35714 12.5,-1.25 9.10715,-0.17857 3.39285,-4.28571 3.92857,-11.07143 -2.5,-3.92857 -2.67857,-3.39286 1.42857,-5 1.60715,-3.57143 -0.71429,-7.14286 -0.89286,-10.89285 2.14286,-9.28572 -21.07143,-5.53571 -15.71428,-3.21429 -33.03572,-0.89286 -4.10714,-1.42857 -1.60714,-2.67857 z"
       id="path4850"
       inkscape:connector-curvature="0" />
    <path
       style="fill:#7f8488;fill-opacity:1;fill-rule:evenodd;stroke:none;stroke-width:1px;stroke-linecap:butt;stroke-linejoin:miter;stroke-opacity:1"
       d="m 119.95536,711.46931 c 2.27762,3.5884 3.00157,4.49208 6.11607,5.71429 3.35402,1.31621 6.35967,1.63687 9.95668,1.42857 5.69233,-0.32964 12.26114,-1.61331 18.60578,-2.97444 2.1413,-0.45938 3.36321,-0.81914 5.13709,-1.40505 1.64784,-0.54428 3.47347,-0.60534 5.11545,-1.16705 2.45361,-0.83939 6.51221,-6.10707 4.08176,-7.01134 -9.44151,-3.51281 -20.18146,-2.08932 -30.93247,-0.65641 -5.71925,0.76227 -6.28981,-0.87109 -10.53571,3.03572 -0.19589,0.18025 -7.6873,2.81096 -7.54465,3.03571 z"
       id="path4842"
       inkscape:connector-curvature="0"
       sodipodi:nodetypes="ssssssssss" />
    <path
       style="fill:#3e4649;fill-opacity:1;fill-rule:evenodd;stroke:none;stroke-width:1px;stroke-linecap:butt;stroke-linejoin:miter;stroke-opacity:1"
       d="m 108.21058,711.26011 c 36.76691,-12.92299 64.468,-22.46937 64.468,-22.46937 l 37.31989,11.25525 c 0,0 -4.53429,6.00156 -10.60815,7.97816 -12.93775,3.14016 -20.99236,3.58323 -32.24746,3.62373 -8.51373,0.31065 -16.63751,-1.46081 -25.1569,-1.45024 -7.32671,0.18523 -11.26149,0.45241 -16.67345,1.22703 -2.07489,0.30511 -1.98807,1.29145 -3.52678,2.67857 -1.73237,-0.25236 -3.03537,-1.09071 -4.86608,-0.75893 -2.25322,0.40836 -6.10142,4.14326 -8.08036,2.99107 -1.74972,-1.01873 -3.33656,-3.22712 -0.62871,-5.07527 z"
       id="path4840"
       inkscape:connector-curvature="0"
       sodipodi:nodetypes="ccccccccccc" />
    <path
       style="fill:#aeaeae;fill-opacity:1;fill-rule:evenodd;stroke:none;stroke-width:1px;stroke-linecap:butt;stroke-linejoin:miter;stroke-opacity:1"
       d="m 206.60715,663.9336 c 0,0 4.61774,4.10362 7.32143,5.53571 3.27689,1.73571 6.90803,2.80291 10.53571,3.57143 3.70906,0.78576 6.41454,1.45724 8.75,3.57143 1.69765,1.5368 3.52168,3.4249 3.57143,5.71429 0.0573,2.63528 -1.86227,5.6603 -3.75,7.49999 -7.88179,7.68122 -19.19442,12.70567 -30.17857,13.39286 -8.81947,0.55176 -29.03329,-0.80897 -40.89286,-5.53571 -3.50965,-1.3988 -3.39286,-5 -3.39286,-5 z"
       id="path4821"
       inkscape:connector-curvature="0"
       sodipodi:nodetypes="cssssssscc" />
    <path
       style="fill:#aeaeae;fill-opacity:1;fill-rule:evenodd;stroke:none;stroke-width:1px;stroke-linecap:butt;stroke-linejoin:miter;stroke-opacity:1"
       d="m 264.55358,800.13002 c 0.71428,0 21.07143,4.91072 21.07143,4.91072 l -1.96429,10.44643 c 0,0 0,9.10714 0.35714,9.375 0.35715,0.26785 0.35715,8.92857 0.35715,8.92857 l -2.41072,7.5 4.64286,6.78571 -1.33929,6.69643 -4.73214,8.75 -9.01786,1.07143 -1.42857,-1.07143 -0.26785,-4.10714 -2.94643,-10.26786 -1.33929,-13.48214 1.60715,-19.19643 -0.23408,-8.14889 z"
       id="path4811"
       inkscape:connector-curvature="0"
       sodipodi:nodetypes="ccccccccccccccccc" />
    <path
       style="fill:#aeaeae;fill-opacity:1;fill-rule:evenodd;stroke:none;stroke-width:1px;stroke-linecap:butt;stroke-linejoin:miter;stroke-opacity:1"
       d="m 239.55358,872.98717 16.25,-0.71429 5.35714,3.66072 9.28572,2.76785 -0.26786,-6.60714 32.85714,-0.98214 11.96429,0.71428 18.57143,2.85715 15.98214,0.89285 c 0,0 12.05357,1.42858 12.41071,1.42858 0.35715,0 12.32143,4.46428 12.32143,4.46428 l 9.28572,3.125 7.85714,-0.0893 6.07143,-2.14286 8.57143,-0.0893 -3.03572,5.625 -3.03571,2.94643 -8.21429,2.5 -9.28571,4.19643 -9.28572,2.23214 -21.25,0.26786 -43.66071,-0.625 -13.92857,-0.35714 -11.875,-3.03572 -8.57143,-3.66071 -9.91072,-4.01786 -12.67857,-5.625 -10.44643,-3.39286 z"
       id="path4809"
       inkscape:connector-curvature="0" />
    <path
       style="fill:#77624b;fill-opacity:1;fill-rule:evenodd;stroke:none;stroke-width:1px;stroke-linecap:butt;stroke-linejoin:miter;stroke-opacity:1"
       d="m 230.92161,874.29716 8.58629,-1.26269 7.32361,35.60788 6.18718,28.66308 4.41942,27.14785 3.78807,22.34962 -7.95495,-0.50507 -5.68211,-27.7792 -6.43972,-39.39595 z"
       id="path4807"
       inkscape:connector-curvature="0" />
    <path
       style="fill:#77624b;fill-opacity:1;fill-rule:evenodd;stroke:none;stroke-width:1px;stroke-linecap:butt;stroke-linejoin:miter;stroke-opacity:1"
       d="m 215.0117,795.63153 7.82869,0.37881 3.6618,15.15229 3.6618,16.41498 6.69226,37.1231 -8.71256,0.37881 z"
       id="path4803"
       inkscape:connector-curvature="0" />
    <path
       style="fill:#77624b;fill-opacity:1;fill-rule:evenodd;stroke:none;stroke-width:1px;stroke-linecap:butt;stroke-linejoin:miter;stroke-opacity:1"
       d="m 208.03572,750.05531 -4.82227,1.96485 -3.83789,4.375 0.26758,5.26757 2.5,4.375 2.58985,2.85743 3.48046,2.67968 2.41211,3.39258 0.71289,4.19531 0.44727,4.375 4.82227,-0.35742 1.07031,-2.32031 -2.14258,-11.16016 1.60742,-3.39453 2.76758,-4.91015 -0.26758,-4.55274 -1.875,-3.66211 -2.5,-2.94531 -7.23242,-0.17969 z m 1.54688,5.42188 2.77734,1.26367 2.39844,3.4082 -1.38868,1.89453 -2.65039,1.26367 -3.78906,0 -2.14648,-3.2832 0.88476,-2.40039 3.91407,-2.14648 z"
       id="path4790"
       inkscape:connector-curvature="0" />
    <path
       style="fill:none;fill-rule:evenodd;stroke:#262323;stroke-width:1px;stroke-linecap:round;stroke-linejoin:miter;stroke-opacity:1"
       d="m 158.74166,692.95946 c 0,0 -2.14266,1.79164 -3.03812,2.60701 -1.2509,1.13902 -15.17418,4.51824 -23.85085,7.74071 -6.80723,2.52818 -12.23032,4.63118 -19.34718,7.24833 -0.84448,0.31055 -2.04004,0.96307 -3.5445,1.08543 -1.2603,0.1025 -4.59164,0.91321 -4.59164,0.91321"
       id="path4620"
       inkscape:connector-curvature="0"
       sodipodi:nodetypes="cssssc" />
    <path
       style="fill:none;fill-opacity:1;fill-rule:evenodd;stroke:#262323;stroke-width:1px;stroke-linecap:butt;stroke-linejoin:miter;stroke-opacity:1"
       d="m 101.60715,714.23717 c -0.23623,0.0859 0.23218,-1.20305 2.94643,-1.78572 3.45864,-0.74247 9.77678,-3.48214 9.77678,-3.48214 l 13.03572,-4.77679 19.59821,-6.38392 8.57143,-2.67858"
       id="path4622"
       inkscape:connector-curvature="0"
       sodipodi:nodetypes="cscccc" />
    <path
       style="fill:none;fill-opacity:1;fill-rule:evenodd;stroke:#262323;stroke-width:1px;stroke-linecap:round;stroke-linejoin:miter;stroke-opacity:1"
       d="m 256.7588,629.89652 c 0,0 -5.58585,-6.05673 -9.47062,-7.40174 -3.38237,-1.17106 -10.79799,-2.64636 -14.07389,-1.20404 -3.48826,1.53581 -5.32165,4.07032 -6.69643,8.30358 -1.29537,3.98872 -1.11743,8.70351 -1.69643,12.85714 -0.586,4.20388 -1.18249,7.15077 -3.39285,9.82143 -3.83107,4.62886 -8.58595,8.63225 -13.92857,11.87499 -8.40502,5.10149 -16.79704,9.84662 -25.17858,14.73215 -8.76647,5.1099 -17.13872,11.16721 -26.33929,15.44642 -4.20105,1.95393 -27.63656,7.56515 -53.83928,18.75 -0.72682,0.71156 -0.81412,2.30417 -0.625,3.30358 0.2978,1.57369 1.77955,2.94887 3.21429,3.66071 1.28415,0.63713 2.57973,0.50591 3.83928,-0.17857 3.65542,-1.98646 8.21429,-5 8.21429,-5 1.33076,1.27816 2.45553,2.38184 3.92857,3.21428 1.54076,0.87071 3.23393,1.67134 5,1.78572 6.13187,0.39712 9.56806,-0.0558 14.28572,-0.71428 5.34626,-0.74625 9.45967,-1.86093 14.28571,-2.14286 6.30887,-0.36855 12.65239,0.33171 18.92857,1.07142 6.00647,0.70792 11.91994,2.06171 17.85714,3.21429 2.865,0.55618 5.08639,1.81366 8.00322,1.91198 3.69211,0.12445 3.34515,0.83753 12.26339,-1.26028 0.65889,-0.15499 1.16127,-0.20106 1.78697,-0.29456 2.98095,-0.44544 6.38999,-1.75787 9.19643,-2.85714 4.39632,-1.72203 7.39006,-3.61972 10.89285,-6.78571 3.89001,-3.51598 7.40375,-7.58723 10,-12.14286 2.94607,-5.16945 4.87239,-10.95779 6.07143,-16.78572 1.22562,-5.95715 1.3724,-12.13981 1.07143,-18.21428 -0.26247,-5.29747 -2.08886,-10.42486 -1.69643,-15.71429 0.1755,-2.3655 0.64649,-4.52766 1.60715,-6.69642 0.66981,-1.51216 3.6211,-5.25889 3.6211,-5.25889"
       id="path4167"
       inkscape:connector-curvature="0"
       sodipodi:nodetypes="csssssssscssscssssssssssssssssc" />
    <path
       style="fill:#ff7f00;fill-opacity:1;fill-rule:evenodd;stroke:none;stroke-width:1px;stroke-linecap:butt;stroke-linejoin:miter;stroke-opacity:1"
       d="m 295.01795,925.764 c 0,0 -0.78908,6.70986 -0.53571,10.05756 0.9128,12.06016 1.94634,19.04061 1.94634,19.04061 l 21.25,9.64286 -2.32143,-14.46429 -1.60714,-18.03571 -3.21429,-3.57143 -9.10714,-1.07143"
       id="path4658"
       inkscape:connector-curvature="0"
       sodipodi:nodetypes="cscccccc" />
    <g
       id="g4149"
       transform="translate(358.92857,-529.64286)">
      <path
         style="fill:#262323;stroke:#262323;stroke-width:1.0629921;stroke-miterlimit:4;stroke-dasharray:none;stroke-opacity:1"
         d="m 88.447255,1206.8782 c -3.39479,-1.8182 -6.0476,-6.3432 -6.0476,-10.3157 0,-4.2128 8.181574,-10.1144 14.021994,-10.1144 5.533501,0 9.834701,4.6222 8.713351,9.3637 -0.60564,2.561 -1.25467,2.2449 -1.25467,-0.6111 0,-2.1138 -0.20444,-2.8106 -1.21211,-4.1317 -1.37634,-1.8045 -4.023671,-3.3181 -5.803381,-3.3181 -1.80368,0 -6.59245,1.9897 -8.944584,3.7165 -3.87985,2.8484 -4.6941,5.8174 -2.74403,10.0054 1.15496,2.4803 3.05903,4.0757 5.674454,4.7542 0.96454,0.2503 1.75374,0.6411 1.75374,0.8685 0,0.7592 -2.58628,0.624 -4.157164,-0.2173 z m -356.049115,-9.7101 c -3.31413,-2.4038 -7.40353,-4.8513 -12.0503,-7.2121 -2.44805,-1.2438 -4.45101,-2.4095 -4.45101,-2.5904 0,-0.181 0.62098,-1.4873 1.37995,-2.903 2.59769,-4.8455 6.94681,-8.8635 9.59917,-8.8684 2.88114,0 6.97404,3.2781 7.86724,6.3111 0.36228,1.2303 -0.78011,5.3509 -2.34031,8.4416 -0.71911,1.4246 -1.30747,2.8848 -1.30747,3.2451 0,0.3602 0.76872,1.0471 1.70828,1.5264 1.57329,0.8026 3.06841,2.338 3.06841,3.151 0,0.752 -1.63212,0.2346 -3.47396,-1.1013 z m -2.47091,-5.8521 c 1.15036,-1.2711 3.45037,-7.4106 3.17329,-8.4706 -0.78924,-3.0192 -4.63566,-5.9313 -7.03799,-5.3283 -1.58275,0.3972 -6.51487,5.5594 -7.14982,7.4834 -0.50634,1.5342 -0.47341,1.653 0.72373,2.6109 0.68982,0.552 1.46721,1.0046 1.72754,1.0058 0.26033,10e-4 1.92132,0.7765 3.69108,1.7229 3.70186,1.9796 3.9237,2.024 4.87217,0.9759 z m 342.360115,-8.0162 c -1.17219,-1.2538 -2.42215,-2.7108 -2.7777,-3.2377 -0.90394,-1.3395 -0.35428,-2.0268 0.9418,-1.1776 1.28828,0.8441 1.97435,0.5185 5.42261,-2.574 1.37276,-1.2311 4.18424,-3.6828 6.24777,-5.4481 2.06349,-1.7654 3.75179,-3.5025 3.75179,-3.8603 0,-0.3579 -0.34197,-0.9033 -0.75993,-1.2121 -0.58875,-0.435 -0.6435,-0.6795 -0.243,-1.0859 0.40224,-0.4081 1.1488,0.082 3.3654,2.2109 2.665704,2.5597 3.597374,4.3345 2.275404,4.3345 -0.31517,0 -0.99781,-0.4885 -1.51699,-1.0856 -0.519144,-0.5971 -1.091744,-1.0847 -1.272474,-1.0837 -1.69547,0.01 -14.44151,11.1659 -14.44151,12.6404 0,0.4263 0.68203,1.2953 1.51562,1.9311 0.8336,0.6359 1.4083,1.3297 1.27711,1.542 -0.54097,0.8753 -1.7736,0.2587 -3.7859,-1.8939 z m -324.256385,-11.2376 c -1.31359,-0.9452 -3.5608,-2.8609 -4.99381,-4.2571 -1.43301,-1.3963 -3.38711,-3.0213 -4.34245,-3.6113 -2.34351,-1.4472 -4.55958,-3.5693 -4.55958,-4.3662 0,-0.8864 8.05902,-9.3063 9.25112,-9.6654 0.5245,-0.158 1.61334,-0.5926 2.41964,-0.9658 1.24063,-0.5742 1.77467,-0.596 3.47396,-0.1418 3.70371,0.9899 5.3887,3.8865 4.44377,7.6392 -0.27798,1.1039 -0.386,2.2004 -0.24003,2.4366 0.15935,0.2578 1.27029,0.3157 2.78041,0.1449 2.22753,-0.252 2.74005,-0.1527 4.48365,0.8691 2.09571,1.2282 2.8023,2.2735 2.04717,3.0287 -0.3281,0.3281 -1.07916,0.1169 -2.57514,-0.724 -2.67537,-1.5039 -4.96242,-1.5417 -7.62516,-0.1259 -2.12417,1.1295 -5.43204,4.7431 -5.43204,5.9342 0,0.4016 1.04673,1.3493 2.38835,2.1624 1.77765,1.0774 2.38835,1.7016 2.38835,2.4413 0,1.4407 -1.11135,1.2135 -3.90821,-0.7989 z m 0.078,-7.8691 c 2.84676,-2.9987 3.95979,-5.4655 4.00873,-8.8844 0.0485,-3.3908 -0.56727,-4.1043 -3.77177,-4.37 -1.77891,-0.1476 -2.75144,0.019 -4.0858,0.6997 -2.03314,1.0373 -7.51953,6.7747 -7.51953,7.8637 0,0.8668 1.12496,1.9438 4.12533,3.9493 1.19418,0.7982 2.42657,1.8046 2.73865,2.2364 0.95839,1.326 2.22585,0.9054 4.50439,-1.4947 z m 306.933255,1.6509 c 0,-1.0156 2.78365,-4.7601 5.85018,-7.8694 1.95156,-1.9789 6.0339,-7.0228 6.48392,-8.0112 0.48878,-1.0735 -0.2539,-1.9481 -3.97349,-4.6792 -2.49251,-1.8302 -3.42222,-3.1291 -2.23965,-3.1291 0.65302,0 2.86664,1.5659 4.95229,3.5033 0.95534,0.8874 3.69109,3.4097 6.07943,5.605 2.38835,2.1954 4.34245,4.2195 4.34245,4.4981 0,1.0355 -1.16304,0.4387 -3.8788,-1.9903 -1.53539,-1.3733 -3.06562,-2.4969 -3.4005,-2.4969 -0.57253,0 -2.08555,1.6681 -4.71692,5.2003 -0.62706,0.8418 -2.25276,2.7029 -3.61269,4.1359 -1.35992,1.433 -2.9661,3.436 -3.56929,4.451 -1.22331,2.0586 -2.31693,2.428 -2.31693,0.7825 z m -281.935725,-12.8687 c -0.74702,-0.4351 -5.02568,-6.4207 -5.61817,-7.8596 -0.16543,-0.4017 -1.38675,-2.1989 -2.71403,-3.9936 -1.32728,-1.7948 -2.41758,-3.4202 -2.4229,-3.612 -0.005,-0.1918 -0.39178,-0.8373 -0.85883,-1.4344 -1.20145,-1.536 -1.07937,-2.0715 0.63562,-2.788 1.63862,-0.6847 8.07209,-5.2775 8.58203,-6.1267 0.50878,-0.8473 2.49438,-2.0005 2.95465,-1.716 0.87898,0.5432 -0.58872,2.0138 -5.66878,5.6798 -2.86043,2.0642 -5.20078,3.9247 -5.20078,4.1343 0,0.8883 4.09856,5.5933 4.87237,5.5933 0.45364,0 1.83901,-0.957 3.07859,-2.1266 2.85136,-2.6903 6.83757,-5.6898 7.56161,-5.6898 1.31647,0 0.35584,1.4471 -2.15954,3.2533 -4.14228,2.9744 -7.64519,6.0168 -7.67819,6.6689 -0.0377,0.7457 2.83759,5.5513 4.26128,7.1219 0.59537,0.6568 1.41184,1.1942 1.81439,1.1942 0.6825,0 3.29548,-1.8977 8.40083,-6.1012 1.30769,-1.0767 2.28553,-1.5986 2.53256,-1.3515 0.65493,0.6549 -0.57,2.1741 -2.92575,3.6286 -1.19418,0.7373 -3.36536,2.3878 -4.82486,3.6679 -2.72533,2.3903 -3.30606,2.6236 -4.6221,1.8572 z m 262.964675,-3.6504 c -2.6231,-0.6412 -4.26392,-1.8283 -6.38294,-4.6179 -1.8754,-2.4689 -2.23544,-3.79 -1.57681,-5.7857 0.85029,-2.5764 1.77045,-1.9894 1.63931,1.0457 -0.11123,2.5744 -0.0999,2.6008 2.05938,4.8094 2.42619,2.4815 3.2402,3.0137 5.33067,3.4852 3.39272,0.7651 6.17176,-1.4494 6.1752,-4.9209 0.002,-1.9259 -1.52837,-4.578 -3.41771,-5.9234 -2.09871,-1.4944 -3.09434,-3.5043 -3.09434,-6.2466 0,-2.0732 0.15705,-2.5377 1.11213,-3.2889 1.32572,-1.0428 5.32277,-2.0167 6.77809,-1.6514 2.42009,0.6074 7.30836,6.4292 7.30836,8.704 0,1.1938 -1.16552,0.7839 -1.74431,-0.6134 -0.96423,-2.3278 -2.94214,-4.6695 -4.9264,-5.8323 -1.78922,-1.0486 -2.07782,-1.0944 -3.94045,-0.6254 -2.15857,0.5436 -3.28468,1.6971 -3.28468,3.3646 0,1.468 1.64658,4.2184 2.9397,4.9105 1.38776,0.7427 2.98831,3.2669 3.65717,5.7677 0.47215,1.7653 0.42282,2.1497 -0.53964,4.2046 -0.83299,1.7785 -1.43084,2.4305 -2.79834,3.0517 -1.98927,0.9037 -2.23142,0.9112 -5.29439,0.1625 z M -202.84934,1135.766 c -1.56556,-0.3028 -4.91771,-3.9323 -6.25773,-6.7755 -1.58941,-3.3722 -2.03555,-8.1731 -1.00925,-10.8604 0.88737,-2.3236 2.03399,-3.4437 4.75918,-4.6492 1.8667,-0.8257 2.32019,-0.8699 4.22848,-0.4121 3.10068,0.7438 2.85929,1.7077 -0.35939,1.435 -2.23113,-0.189 -2.71391,-0.072 -4.53562,1.102 -2.71867,1.7517 -3.56035,3.4375 -3.26848,6.5464 0.36342,3.871 1.87127,7.2434 4.41118,9.8657 2.07094,2.1381 2.40405,2.3208 4.23139,2.3208 2.42508,0 5.40061,-1.0029 6.8071,-2.2944 0.57644,-0.5294 1.51227,-1.9986 2.07963,-3.265 0.56736,-1.2664 1.22491,-2.1831 1.46121,-2.037 1.84229,1.1386 -2.68148,7.315 -6.13583,8.3773 -1.88772,0.5806 -5.0857,0.903 -6.41187,0.6464 z m 219.941575,-0.8114 c -0.14497,-0.3778 -0.26358,-1.7218 -0.26358,-2.9866 0,-1.3112 -0.23332,-2.4923 -0.54281,-2.7479 -1.43205,-1.1825 -9.4854704,-4.869 -10.6366504,-4.869 -0.88529,0 -1.83771,0.4884 -2.96378,1.5198 -1.71167003,1.5679 -3.22656003,1.9895 -3.22656003,0.8981 0,-0.342 0.58023,-1.035 1.28942,-1.54 0.70918003,-0.5049 1.86204003,-1.4464 2.56192003,-2.0922 0.69987,-0.6457 2.12259,-1.8245 3.16159,-2.6194 1.039,-0.795 4.0709004,-3.5796 6.7375504,-6.188 3.21563,-3.1455 5.17217,-4.7427 5.80969,-4.7427 0.89343,0 0.94304,0.1455 0.70338,2.0627 -0.62572,5.0053 -1.24373,17.0236 -1.0062,19.5672 0.24771,2.6527 -0.14795,4.4248 -0.98788,4.4248 -0.20488,0 -0.49112,-0.309 -0.63609,-0.6868 z m -0.78157,-8.5485 c 0.25126,-0.3028 0.69224,-3.0542 0.97995,-6.1142 0.46453,-4.9407 0.44645,-5.6404 -0.16149,-6.2483 -0.6233,-0.6233 -1.08538,-0.3044 -5.16067,3.5624 -2.4618404,2.3359 -4.5347604,4.4927 -4.6064804,4.7928 -0.16943,0.7091 6.3295404,4.2857 8.2193404,4.5235 0.14987,0.019 0.47809,-0.2135 0.72935,-0.5162 z m -194.023795,-0.6864 c 0,-0.2582 0.39082,-0.6787 0.86849,-0.9344 1.1803,-0.6317 1.09673,-1.4727 -0.47459,-4.7767 -0.73832,-1.5524 -1.82971,-4.0927 -2.42532,-5.6452 -3.30153,-8.6053 -3.33905,-8.6537 -5.89355,-7.602 -0.51522,0.2121 -0.75993,0.1129 -0.75993,-0.3079 0,-1.3848 6.97359,-4.8312 7.9004,-3.9044 0.34773,0.3477 0.0465,0.7325 -1.10577,1.4123 -1.63766,0.9663 -1.90416,1.7737 -1.16909,3.5423 0.22803,0.5486 1.02189,2.5607 1.76414,4.4714 2.60737,6.7118 4.81551,10.6441 5.9688,10.6293 0.41497,-0.01 1.24301,-0.3917 1.8401,-0.8588 1.26893,-0.9926 2.17122,-1.1108 2.17122,-0.2844 0,0.9126 -1.27953,1.8233 -4.34245,3.0905 -3.79636,1.5706 -4.34245,1.7175 -4.34245,1.168 z m 165.716864,-3.6061 c -0.92987,-0.5401 -9.19199,-2.9735 -10.096089,-2.9735 -0.69033,0 -0.80052,-1.8116 -0.17863,-2.937 0.22916,-0.4147 1.125599,-2.9036 1.992089,-5.5307 0.86649,-2.6272 1.86595,-5.2317 2.22103,-5.7877 0.35507,-0.556 1.13026,-2.2986 1.72263,-3.8723 1.59547,-4.2388 1.83685,-4.6103 2.5897,-3.9855 0.7652,0.6351 0.66013,1.0219 -1.8738,6.8985 -2.96416,6.8744 -4.72311,13.1783 -3.86189,13.8407 0.41164,0.3166 2.39705,0.9569 9.38246,3.0258 1.6004402,0.474 1.7085102,1.8258 0.1446202,1.809 -0.6743002,-0.01 -1.5932602,-0.2265 -2.0421202,-0.4873 z m -144.224334,-4.1895 c -2.10679,-0.9905 -4.66433,-4.9838 -5.45516,-8.5175 -1.59823,-7.1417 1.50646,-12.7206 7.87186,-14.1451 2.94719,-0.6595 5.03161,-0.1568 7.79066,1.8791 4.9244,3.6336 6.24575,12.131 2.65635,17.0825 -2.6511,3.6572 -9.04443,5.4966 -12.86371,3.701 z m 9.08957,-2.6738 c 3.12552,-1.7882 4.2146,-3.8617 4.23888,-8.0704 0.0254,-4.3951 -2.24028,-7.8747 -6.37793,-9.7952 -2.24663,-1.0428 -3.27976,-1.0264 -5.88267,0.093 -1.54927,0.6665 -2.4952,1.4617 -3.4459,2.897 -1.20283,1.816 -1.31043,2.2851 -1.31043,5.7135 0,3.5341 0.0876,3.8842 1.62842,6.5054 0.89563,1.5236 2.21465,3.1422 2.93115,3.5968 1.93425,1.2272 5.05385,0.8702 8.21848,-0.9404 z m 22.4277,-3.7749 c -2.72774,-1.3593 -3.56705,-2.893 -4.3604,-7.9681 -0.28001,-1.7912 -0.78852,-4.7752 -1.13002,-6.631 -0.73996,-4.0212 -0.78548,-5.8091 -0.15778,-6.1971 0.7717,-0.4769 0.931,0.033 1.32235,4.2327 0.20685,2.2197 0.66346,5.1106 1.01471,6.4242 0.35124,1.3136 0.85589,3.3911 1.12143,4.6168 0.27784,1.2824 0.88444,2.5775 1.42887,3.0507 3.55528,3.0905 10.3068,2.1058 12.20333,-1.7797 0.77834,-1.5947 0.80139,-2.0839 0.33748,-7.1651 -1.10992,-12.157 -1.11082,-12.1843 -0.40186,-12.1843 0.96445,0 1.18586,0.8939 1.88218,7.5993 0.74177,7.1431 0.48425,10.5753 -0.98223,13.0912 -0.90333,1.5497 -1.47487,1.9584 -4.0992,2.9311 -3.83841,1.4228 -5.28958,1.4191 -8.17886,-0.021 z m 74.440355,0.6444 c -0.15486,-0.3981 0.0105,-1.8637 0.36749,-3.2569 1.37845,-5.3796 2.45323,-12.0918 2.46252,-15.3788 0.01,-3.4901 0.14168,-3.588 4.17293,-3.1007 1.88619,0.2281 4.34472,0.8316 5.46341,1.3412 1.11869,0.5096 2.17281,0.9266 2.3425,0.9266 0.75307,0 3.35098,2.3995 3.82912,3.5366 0.66801,1.5887 0.0213,5.0971 -1.37388,7.4528 -1.45577,2.4581 -3.14829,2.9898 -9.1092,2.8618 -5.47567,-0.1176 -5.74706,9e-4 -5.75913,2.5173 -0.008,1.7419 -1.94785,4.2515 -2.39576,3.1001 z m 14.45384,-7.9875 c 1.28292,-0.8986 2.08674,-2.5608 2.45181,-5.07 0.26712,-1.8361 0.18033,-2.1756 -0.80924,-3.1652 -2.39856,-2.3985 -9.75349,-4.739 -10.99402,-3.4985 -0.14253,0.1426 -0.51703,2.7492 -0.83221,5.7925 -0.52686,5.0871 -0.51406,5.5771 0.15867,6.0761 1.12129,0.8318 8.79222,0.7286 10.02499,-0.1349 z m -56.574839,5.4297 c -3.85704,-0.9302 -5.42807,-2.2993 -5.42807,-4.7304 0,-1.3573 0.63307,-1.0714 1.91414,0.8644 1.28716,1.9451 2.03676,2.3375 5.32424,2.7871 1.80979,0.2475 2.65091,0.1273 4.34245,-0.6207 4.40272,-1.9469 5.43614,-4.1828 3.50204,-7.5771 -1.16939,-2.0523 -3.93951,-3.2059 -7.82321,-3.258 -3.52858,-0.047 -5.27563,-0.8867 -6.3895,-3.0701 -1.05562,-2.0692 -0.78883,-3.5443 1.10537,-6.1117 1.51434,-2.0526 2.60966,-2.5434 5.71603,-2.5611 3.67445,-0.021 8.78708,1.889 7.77247,2.9036 -0.14067,0.1407 -1.26528,-0.07 -2.49913,-0.4687 -5.29356,-1.7097 -8.32941,-1.3033 -10.13706,1.3569 -1.481,2.1795 -1.37661,3.1197 0.55587,5.0067 1.56649,1.5297 1.78806,1.608 4.54719,1.608 2.12023,0 3.53655,0.2813 5.26505,1.0457 2.64767,1.171 3.49397,2.198 4.12021,5 0.59195,2.6486 -0.44788,4.6168 -3.4128,6.4599 -2.50463,1.557 -5.60793,2.0569 -8.47529,1.3655 z"
         id="path4151-8"
         inkscape:connector-curvature="0"
         sodipodi:nodetypes="ssscsssssssssssscsssssscsssscscscsscscccsccsccssssscsssssscssssssscscssssssssssssssssssscscsssssssssscssscssssssssscsssssssssssssssssssssssssscsscscssssssssssscssssccscssscssssscssscsssscssssscscsssscscsssssscssssssssssssssscsscsssscscsssscsssscssssssscccsssssssc" />
      <path
         style="fill:#01945b;fill-opacity:1;fill-rule:evenodd;stroke:none;stroke-width:1px;stroke-linecap:butt;stroke-linejoin:miter;stroke-opacity:1"
         d="m -106.03615,1462.5288 9.975255,-7.071 10.685823,-4.1236 c 0,0 -0.592499,7.0199 -0.510324,15.4414 0.04165,4.2683 2.55601,22.2697 2.55601,22.2697 l -6.670593,2.5254 -10.354071,1.4521 -2.39911,-8.0181 -2.52538,-16.1624"
         id="path4656"
         inkscape:connector-curvature="0"
         sodipodi:nodetypes="cccsccccc" />
      <path
         style="fill:#262323;stroke:#000000;stroke-width:1.0629921;stroke-miterlimit:4;stroke-dasharray:none;stroke-opacity:0"
         d="m -102.52404,1575.6348 c -10.98125,-0.3044 -21.87213,-1.8048 -32.78549,-2.724 -10.22198,-0.8508 -21.57956,-2.7518 -28.66091,-4.7974 -2.14911,-0.6208 -7.91338,-2.7666 -12.80949,-4.7684 -4.89612,-2.002 -11.24695,-4.5522 -14.11297,-5.6672 -6.9413,-2.7004 -11.95672,-5.3088 -22.71474,-11.8132 -4.94183,-2.9879 -10.74384,-6.4594 -12.89335,-7.7145 -11.3623,-6.6343 -30.88459,-18.6363 -33.89733,-20.8396 -9.79161,-7.1607 -22.382,-22.209 -35.05608,-41.8996 -24.80696,-38.5404 -36.54224,-63.2903 -45.9156,-96.8366 -1.63498,-5.8515 -2.69565,-11.2779 -3.90439,-19.9753 -0.48129,-3.4631 -1.16096,-8.0766 -1.51037,-10.2521 -1.23849,-7.7114 -1.64463,-17.9321 -1.11111,-27.9615 1.42807,-26.8452 2.05892,-33.5678 4.42024,-47.1033 2.76649,-15.858 5.44915,-24.2054 15.29288,-47.5857 7.41139,-17.603 13.58263,-29.7301 21.86493,-42.9666 24.49387,-39.1454 27.50374,-43.1566 40.67212,-54.2021 15.87013,-13.3117 33.1772,-24.5779 52.82343,-34.3858 9.77106,-4.878 15.27511,-7.1741 29.74578,-12.4085 14.3752,-5.2 18.72201,-6.4842 26.14665,-7.7249 12.57601,-2.1016 21.72393,-3.7674 29.00247,-5.2813 11.87677,-2.4703 13.50167,-2.7135 21.49513,-3.217 4.1796,-0.2632 10.139625,-0.6741 13.244475,-0.9129 6.57384,-0.5058 22.66839,-0.627 26.98521,-0.2033 4.03089,0.3957 18.28475,2.7395 19.95224,3.2809 1.38515,0.4497 8.9978,1.8837 19.36391,3.6477 12.791839,2.1767 36.3949596,10.7173 58.05642,21.0071 17.88323,8.4951 23.00696,12.1 36.53002,25.7019 7.44423,7.4876 10.26498,10.0154 13.91898,12.4733 8.699234,5.8516 13.036304,9.8643 21.245275,19.6565 2.75029,3.2807 12.89464,18.0178 14.34789,20.8437 0.90805,1.7658 8.59445,14.2091 11.54844,18.6956 3.70255,5.6234 5.70924,9.953 9.46199,20.4156 1.75044,4.8801 4.01077,11.1201 5.023,13.8667 3.46762,9.4095 10.92252,31.4812 12.66779,37.5056 3.79734,13.108 5.2961,21.2169 6.2474,33.8007 0.36637,4.8465 0.84204,10.8083 1.05704,13.2484 0.21499,2.44 0.6234,9.8656 0.90757,16.5013 0.53942,12.5962 0.30827,17.3062 -1.51895,30.9545 -0.33571,2.5078 -0.82966,6.8068 -1.09764,9.5534 -0.26797,2.7466 -1.08683,7.5342 -1.81974,10.639 -0.73292,3.1049 -1.48899,6.5245 -1.68014,7.5993 -1.5272,8.5859 -12.70432,35.6708 -19.06779,46.2058 -1.21523,2.0119 -3.35532,6.0685 -4.75581,9.0147 -1.40048,2.9462 -3.70919,7.7993 -5.13052,10.7847 -4.13162,8.6785 -10.19168,18.0289 -18.15274,28.0089 -10.59228,13.2784 -25.642135,30.0244 -36.099385,40.1679 -4.9882,4.8385 -5.39203,5.1239 -12.96497,9.1624 -4.29903,2.2925 -12.31085,6.8623 -17.80405,10.1551 -11.26679,6.7536 -21.75812,12.7207 -26.94948,15.3279 -7.4562404,3.7446 -19.3495308,8.3861 -29.719501,11.5983 -2.0301,0.6289 -7.06243,2.2059 -11.182959,3.5046 -8.19531,2.583 -10.82887,3.1091 -23.77377,4.7498 -4.77669,0.6054 -11.03048,1.4794 -13.89731,1.9424 -11.24441,1.8157 -18.70779,2.0389 -41.034695,1.2271 z m 36.042345,-3.7832 c 1.31359,-0.2338 3.56081,-0.6322 4.99382,-0.8852 1.43301,-0.253 5.63433,-0.8458 9.33627,-1.3174 19.28661,-2.4571 18.4454,-2.2728 36.042339,-7.8952 23.1731306,-7.404 32.150851,-11.6527 59.708691,-28.2575 2.38835,-1.4391 8.54048,-4.9511 13.67141,-7.8044 10.52063,-5.8505 13.72442,-7.9962 16.48276,-11.0392 1.05387,-1.1626 3.49377,-3.7612 5.42201,-5.7745 1.92822,-2.0134 4.18982,-4.4917 5.02574,-5.5075 0.83592,-1.0158 4.28834,-4.8842 7.672074,-8.5966 5.37113,-5.8927 10.290391,-11.6862 17.517881,-20.6312 2.4045,-2.9758 7.42276,-9.995 10.25995,-14.3509 1.16178,-1.7836 5.35684,-9.6978 9.32241,-17.5869 3.96557,-7.8892 9.24838,-18.3499 11.7396,-23.246 2.49122,-4.8962 5.52851,-11.4424 6.74952,-14.5473 3.19252,-8.118 7.0857,-19.6462 7.08957,-20.993 0,-0.6344 0.37275,-2.3682 0.82428,-3.8529 1.25914,-4.1403 2.57638,-11.4244 3.28116,-18.1443 0.35065,-3.3437 0.96971,-8.7175 1.37564,-11.9418 1.1841,-9.4047 0.77552,-36.3675 -0.7139,-47.1155 -0.23167,-1.6719 -0.62466,-6.264 -0.87331,-10.2048 -0.98782,-15.6569 -6.14804,-33.8245 -21.46139,-75.5586 -6.29069,-17.1444 -6.75194,-18.1476 -12.47829,-27.1403 -2.12919,-3.3437 -5.96444,-9.4992 -8.52284,-13.6788 -6.8236,-11.1476 -8.65715,-13.9607 -11.97969,-18.3798 -8.548381,-11.3696 -13.940531,-16.7519 -23.429305,-23.3861 -6.26463,-4.3801 -8.03106,-5.9259 -16.56576,-14.4971 -14.3446,-14.4059 -17.24585,-16.291 -43.85875,-28.4983 -7.99559,-3.6676 -20.36309043,-8.4717 -29.7457908,-11.5546 -9.4642702,-3.1098 -13.5085092,-4.1771 -19.1067792,-5.0424 -5.74815,-0.8885 -15.81615,-2.785 -18.67254,-3.5173 -6.56487,-1.6832 -17.0315,-3.0835 -25.83758,-3.4567 -6.13504,-0.2601 -9.59977,-0.108 -34.739605,1.525 -4.14477,0.2692 -8.87507,0.8784 -11.72461,1.51 -9.712,2.1526 -24.20832,4.8635 -34.95673,6.5372 -8.77763,1.3668 -11.53024,2.1955 -31.91701,9.609 -11.55588,4.2022 -13.70002,5.1241 -24.53484,10.5494 -17.76225,8.8941 -33.16201,18.573 -46.29615,29.0974 -1.93765,1.5526 -4.27556,3.4092 -5.19534,4.1257 -10.1786,7.9291 -18.20257,17.757 -29.06097,35.5944 -0.95534,1.5694 -4.34147,6.8888 -7.52473,11.821 -5.21664,8.0826 -7.25192,11.4943 -13.29196,22.281 -3.01187,5.3787 -7.86278,15.7385 -12.33913,26.352 -11.54943,27.3837 -13.85537,35.21 -16.99336,57.6744 -2.29601,16.4368 -3.60118,50.9863 -2.25561,59.7087 0.23949,1.5524 0.94449,6.5353 1.56667,11.0732 2.5413,18.535 6.99922,34.4518 15.56763,55.5834 3.83006,9.4458 13.11965,28.2982 17.86694,36.2594 1.6378,2.7466 3.96108,6.6548 5.16284,8.6849 2.82114,4.7657 10.22559,16.4153 15.18032,23.8835 10.41705,15.7016 20.60818,27.6034 29.62877,34.6023 3.29728,2.5583 7.99166,5.49 27.35744,17.0852 2.14951,1.287 9.5751,5.7341 16.50131,9.8824 13.63697,8.1676 22.16309,12.5558 29.31154,15.0861 2.50776,0.8877 5.11934,1.8998 5.80349,2.2493 3.21358,1.6413 16.54127,6.641 20.01388,7.5079 4.83951,1.2081 15.84087,2.9567 22.16671,3.5233 2.62718,0.2353 8.29408,0.8312 12.59311,1.3242 6.87459,0.7883 13.03124,1.1898 27.791675,1.8121 6.74167,0.2843 28.54892,-0.095 31.04852,-0.5403 z m -36.042345,-53.9454 c -5.13495,-0.1996 -10.80183,-0.5583 -12.5931,-0.7972 -3.48198,-0.4644 -7.52287,-0.9366 -17.03894,-1.9912 -10.12081,-1.1216 -15.07678,-2.4037 -25.08283,-6.4888 -3.94077,-1.6088 -8.82603,-3.5582 -10.85612,-4.332 -2.0301,-0.7737 -5.35207,-2.2396 -7.38217,-3.2574 -3.37495,-1.6921 -22.25347,-12.8204 -32.7855,-19.326 -2.38835,-1.4753 -5.80803,-3.531 -7.59929,-4.5683 -2.80692,-1.6255 -4.91162,-3.0668 -8.87394,-6.0768 -13.58627,-10.3213 -41.37035,-53.7678 -52.48523,-82.0724 -5.45298,-13.8862 -9.03251,-26.2448 -10.51804,-36.3143 -0.59453,-4.03 -1.26551,-8.3661 -1.49108,-9.6358 -0.66612,-3.7495 -1.41244,-16.1505 -1.14163,-18.9695 0.13766,-1.433 0.45113,-7.4907 0.69658,-13.4616 0.24545,-5.9709 0.63294,-11.8332 0.86109,-13.0273 0.22816,-1.1942 0.83556,-5.2978 1.34979,-9.1192 1.20356,-8.944 4.00982,-20.1524 6.90385,-27.5745 5.90166,-15.1357 13.42237,-31.7812 17.36354,-38.4307 0.70779,-1.1942 1.70938,-2.9529 2.22576,-3.9082 0.51638,-0.9554 3.18788,-5.2544 5.93668,-9.5534 2.74879,-4.299 5.50581,-8.6484 6.12671,-9.6652 2.96529,-4.856 8.6209,-13.2044 10.66862,-15.7482 4.43672,-5.5115 12.8037,-13.2255 20.20607,-18.6292 2.5869,-1.8884 15.23158,-10.3518 18.39857,-12.3147 3.76559,-2.3338 15.73305,-8.5752 19.815,-10.3342 2.26893,-0.9777 4.77605,-2.0704 5.57138,-2.4281 1.67475,-0.7533 13.64126,-5.0877 20.91757,-7.5765 4.21839,-1.4429 8.43439,-2.3912 15.84994,-3.5653 3.72767,-0.5902 12.77826,-2.2808 21.27801,-3.9745 8.51724,-1.6972 10.66017,-1.9593 19.758145,-2.4162 19.23754,-0.9662 26.755,-0.5553 39.5163,2.1602 3.46311,0.737 8.05525,1.6321 10.20476,1.9893 8.16231,1.3562 11.12349,2.1016 20.1924,5.0832 8.113879,2.6676 16.391289,5.8485 22.3636192,8.5941 0.95534,0.4391 4.57043037,2.0988 8.0335304,3.6881 12.4734304,5.7245 17.3198004,9.1564 27.5745604,19.5266 5.29147,5.351 8.42752,8.1451 11.07325,9.866 8.14568,5.2981 16.19587,13.8429 23.2434,24.6713 4.0121,6.1646 4.47671,6.907 7.60897,12.1589 1.49565,2.5078 3.64107,5.9304 4.76758,7.6059 2.89307,4.3028 5.75527,10.1783 7.75254,15.914 0.94283,2.7077 3.869384,10.9325 6.503474,18.2773 4.79932,13.3824 5.38941,15.181 8.156121,24.8594 3.76503,13.1706 5.13872,24.8487 5.64431,47.9841 0.45926,21.0135 -1.61999,36.1671 -7.299001,53.195 -3.14194,9.4208 -5.94048,16.0492 -9.71689,23.015 -1.553774,2.866 -4.937324,9.5099 -7.518954,14.7643 -6.53819,13.307 -10.19988,18.9657 -19.7857,30.5763 -8.68882,10.5242 -23.89844,27.0641 -27.53829,29.9469 -0.92812,0.7351 -4.01004,2.5776 -6.84872,4.0945 -6.7145,3.588 -11.35493,6.2335 -16.8051,9.5808 -15.5098808,9.5256 -23.490981,13.2658 -40.0313,18.7597 -15.25253,5.0662 -17.64361,5.6652 -26.78469,6.71 -4.07927,0.4663 -8.80809,1.1314 -10.50848,1.4781 -7.50676,1.5303 -16.72243,1.802 -35.877125,1.0577 z m 30.413665,-3.1755 c 4.59202,-0.5819 10.42154,-1.3908 22.12999,-3.0705 5.20775,-0.7472 20.93885,-5.598 32.134139,-9.909 6.81475,-2.6241 14.5737402,-6.7484 29.685411,-15.7791 4.98232,-2.9774 10.64921,-6.2182 12.5931,-7.2017 5.65503,-2.8612 8.93892,-5.2164 12.66218,-9.081 14.45022,-14.999 27.09885,-29.9953 33.8151,-40.0913 2.71522,-4.0816 4.01438,-6.5439 9.9667,-18.8897 1.32423,-2.7466 3.12435,-6.1663 4.00022,-7.5993 5.925924,-9.6952 12.669144,-27.3423 15.348695,-40.1677 3.36328,-16.0977 4.04152,-33.253 2.25235,-56.9694 -1.58291,-20.9823 -2.887001,-25.9465 -17.589495,-66.9574 -3.75965,-10.4872 -5.42303,-14.1598 -8.64209,-19.0811 -1.27707,-1.9524 -4.34769,-6.8717 -6.82361,-10.9319 -8.34448,-13.6839 -12.38748,-19.0839 -19.36554,-25.8654 -2.5962,-2.5231 -6.57676,-5.8244 -8.84569,-7.3363 -3.01575,-2.0094 -6.0525,-4.7003 -11.29038,-10.0042 -7.19132,-7.282 -11.78228,-11.0616 -17.53379,-14.4352 -4.9058404,-2.8775 -20.4884108,-10.0525 -29.494811,-13.5808 -7.063639,-2.7673 -20.279979,-6.8089 -24.786069,-7.5797 -5.64806,-0.9662 -14.82948,-2.7174 -19.15967,-3.6544 -8.06373,-1.745 -18.09955,-2.2933 -29.55178,-1.6146 -15.049945,0.8919 -20.447275,1.3376 -21.766535,1.7975 -1.50354,0.5241 -9.44546,2.0626 -20.11499,3.8967 -16.01526,2.7529 -15.92925,2.7298 -32.13413,8.6199 -11.29993,4.1073 -16.27139,6.3314 -25.87804,11.5774 -17.68003,9.6547 -31.63587,19.7697 -41.42995,30.0279 -4.64507,4.8652 -7.21738,8.3279 -13.1704,17.7293 -2.26847,3.5825 -5.05896,7.9793 -6.20109,9.7705 -5.7875,9.0768 -7.44035,11.8148 -10.30915,17.077 -3.13829,5.7565 -7.40199,14.5336 -9.21289,18.9654 -0.53676,1.3135 -2.38003,5.808 -4.09616,9.9876 -6.60085,16.0762 -7.75052,20.4581 -10.88059,41.4704 -0.63476,4.2612 -1.49877,23.6834 -1.45848,32.7855 0.0384,8.6791 0.44294,12.6299 2.60105,25.4033 3.16374,18.7256 12.6153,43.3597 24.40839,63.6169 8.21038,14.1031 15.73151,25.8022 21.7302,33.8012 10.03497,13.3813 15.2893,18.2182 27.65001,25.4536 1.91068,1.1184 5.81888,3.451 8.6849,5.1836 2.86602,1.7327 6.82422,4.113 8.796,5.2897 3.52742,2.1051 4.57595,2.7342 11.28529,6.7716 5.3845,3.2402 10.34036,5.6805 16.39529,8.0733 3.10486,1.227 8.01239,3.2071 10.90562,4.4003 8.87598,3.6606 11.28076,4.1388 36.35837,7.2296 5.76365,0.7104 11.57621,0.834 11.57621,0.2462 0,-0.2131 -0.57705,-2.8023 -1.28233,-5.7537 -0.70529,-2.9514 -1.77419,-8.102 -2.37535,-11.4457 -2.42678,-13.4979 -5.61936,-31.8201 -7.18828,-41.2532 -0.91363,-5.4932 -2.74927,-14.189 -4.0792,-19.3239 -1.32994,-5.135 -3.00493,-12.2675 -3.72221,-15.85 -1.2888,-6.437 -3.71719,-16.6848 -4.00298,-16.8925 -0.0811,-0.059 -0.7585,-0.5286 -1.50526,-1.0436 -1.49647,-1.0321 -2.76757,-3.3181 -2.76757,-4.9774 0,-0.5885 0.41705,-1.6002 0.92679,-2.2482 1.2315,-1.5656 1.03419,-3.2004 -2.02079,-16.7429 -1.31999,-5.8515 -3.47639,-16.6968 -4.792,-24.1006 -5.3235,-29.9591 -4.9043,-28.1773 -6.90724,-29.3591 -1.66556,-0.9827 -2.13046,-1.9699 -3.04495,-6.4662 -0.88744,-4.3631 -0.85032,-4.8119 0.48617,-5.8776 1.70369,-0.9786 0.92235,-2.1925 0.61432,-3.9245 -0.88435,-4.9724 -1.24816,-5.7679 -3.2154,-7.0302 -5.69875,-4.3079 -11.342,-11.6543 -7.65732,-17.7064 1.40489,-2.2731 5.2947,-4.6871 6.9625,-4.3208 1.76236,0.3871 1.60098,0.8347 -0.55789,1.5472 -1.0098,0.3332 -2.69642,1.4303 -3.74803,2.4379 -5.70129,5.6914 2.1738,14.0471 5.68821,16.4979 2.75225,1.8935 3.19756,2.7398 4.07153,7.7375 0.41766,2.3884 0.968,4.4861 1.22299,4.6615 0.71784,0.494 2.17827,0.3897 2.94703,-0.2104 0.63586,-0.4964 0.62278,-0.9698 -0.15292,-5.5367 -0.46651,-2.7466 -0.96238,-5.7205 -1.10192,-6.6088 -0.22273,-1.4177 -0.002,-1.9828 1.8045,-4.6272 3.21949,-4.7119 3.26919,-8.4332 0.15982,-11.9657 -0.97903,-1.1122 -1.65446,-2.1478 -1.50095,-2.3013 0.66715,-0.6672 2.70441,0.6812 3.86466,2.5579 2.42512,3.9225 2.13932,8.0189 -0.86571,12.4082 -2.1963,2.419 -1.8515,3.5927 -1.28585,6.6076 0.38305,2.0417 0.82855,4.7671 0.98999,6.0565 0.33529,2.6777 1.27671,3.9448 2.88518,3.7652 2.897,-0.3234 14.30755,-0.6898 24.12526,-0.2122 13.22338,0.6433 14.657655,0.4936 24.881765,-2.5979 13.35538,-4.0383 17.94908,-4.9039 25.96283,-4.8925 11.54864,0.016 20.97096,3.1078 29.97965,9.836 5.211,3.8919 7.75625,5.4587 11.27054,6.9378 2.171319,0.9139 2.730909,0.9901 4.316539,0.5876 1.46436,-0.3717 2.35273,-0.313 4.52761,0.2992 1.83271,0.5159 5.2979902,0.8686 10.7393302,1.0931 7.0654504,0.2915 8.4119304,0.468 11.1736604,1.4645 2.9424704,1.0617 3.6282604,1.1331 10.8956704,1.1331 11.02486,0 13.26348,0.8269 15.71395,5.8045 1.10242,2.2393 1.39293,3.4632 1.60722,6.7708 0.24019,3.7073 0.3792,4.1914 1.70069,5.9227 1.62879,2.1338 3.67787,6.0591 4.51147,8.6423 0.30829,0.9553 2.20358,5.0196 4.21175,9.0318 5.07466,10.1387 4.96907,9.7541 4.66724,16.9988 -0.13986,3.3569 -0.0885,8.1326 0.11416,10.6127 0.45943,5.6226 0.0497,10.0003 -1.40694,15.0318 -2.09442,7.2347 -5.51184,13.0624 -8.92241,15.2154 -0.93653,0.5912 -3.31663,1.4524 -5.28913,1.9138 -2.26607,0.5301 -5.48324,1.799 -8.73896,3.4466 -9.03486,4.5723 -9.30127,4.6067 -34.3637008,4.4448 -61.0220592,-0.3942 -56.0520992,-0.2877 -60.9033992,-1.3055 -6.29689,-1.321 -12.68164,-3.5034 -17.87699,-6.1105 -2.45829,-1.2337 -6.74497,-3.0809 -9.52596,-4.105 -2.78098,-1.0241 -6.090385,-2.3872 -7.354215,-3.0291 -2.73654,-1.39 -12.8866,-5.0424 -14.01274,-5.0424 -0.43494,0 -0.8982,0.1738 -1.02947,0.3862 -0.32647,0.5282 4.19061,22.4304 5.81221,28.182 0.7213,2.5584 1.69763,7.0942 2.16961,10.0796 1.13087,7.1532 2.01132,11.2822 2.51265,11.7835 0.41808,0.4181 1.60689,-0.3498 7.332045,-4.7361 3.87714,-2.9705 7.66036,-4.7782 11.74193,-5.6105 4.54612,-0.9271 8.73153,-0.3186 18.82017,2.7359 7.81196,2.3653 8.22372,2.4413 14.92962,2.7546 8.86215,0.4142 8.5764,0.1379 9.17739,8.8721 0.34443,5.0056 1.56583,12.5423 3.53667,21.8233 0.86927,4.0935 1.45841,7.7608 1.30919,8.1497 -0.22707,0.5917 -1.5535,0.065 -8.1346,-3.2293 -16.25491,-8.1369 -22.80332,-8.8355 -32.1873,-3.4337 -2.07336,1.1935 -4.8498,2.5416 -6.16986,2.9957 -1.105713,0.3805 -4.990745,1.891 -7.514254,2.0406 -2.928836,0.1737 -3.533123,0.1085 -5.344016,0.2476 -1.298665,0.1 -1.539785,0.2897 -1.656745,1.3055 -0.24439,2.1224 3.381255,18.5935 4.349665,19.7604 0.65848,0.7934 17.78945,0.7335 24.24678,-0.085 z m -81.641185,-221.6225 c -2.08629,-2.0863 -1.47415,-5.493 1.34878,-7.5064 5.00115,-3.5669 11.80169,2.6067 7.80218,7.0829 -1.17263,1.3124 -1.47957,1.4187 -4.54619,1.5735 -3.17988,0.1606 -3.33219,0.1226 -4.60477,-1.15 z m 7.47734,-1.7224 c 1.93091,-1.6863 -0.1353,-4.8715 -3.16011,-4.8715 -2.15836,0 -4.39389,3.9139 -2.91932,5.1111 1.32532,1.0759 4.72655,0.9419 6.07943,-0.2396 z m 20.87215,-129.5028 c -0.52176,-0.2103 -1.17474,-0.8047 -1.45105,-1.321 -1.06115,-1.9828 0.68761,-5.6239 2.70106,-5.6239 0.78334,0 2.58553,0.1374 0.8051,0.4267 -0.12637,0.02 -0.51059,0.2795 -0.63745,0.4034 -0.4721,0.4611 -0.69328,1.3328 -0.61011,2.0546 0.27076,2.3497 4.08839,2.5347 5.32369,0.258 0.16222,-0.2989 0.30953,-0.7325 0.30132,-0.9749 -0.0226,-0.6668 -0.46677,-0.9295 -1.01376,-1.2554 -0.57994,-0.3456 -1.41166,-0.4637 -2.04056,-0.5398 -0.59717,-0.072 -1.40176,0.026 -1.62679,0.032 -1.09803,0.027 -0.37116,0.023 -0.76269,-0.328 -0.16426,-0.1471 2.23133,-0.1983 2.74205,-0.1036 0.67377,0.1251 1.33425,0.2456 1.917,0.5536 0.7717,0.4079 1.06776,0.737 1.2425,1.33 0.15926,0.5405 0.0918,1.0134 -0.0967,1.6875 -0.78923,2.8226 -3.53223,4.715 -6.79359,3.401 z m 26.900215,352.5014 c 0.10249,-0.2985 -0.17484,-1.813 -0.61628,-3.3654 -1.450715,-5.1017 -3.347995,-14.4507 -4.053785,-19.9753 -1.09367,-8.5607 -2.70763,-17.7352 -4.77448,-27.1403 -1.04971,-4.7767 -2.31767,-11.2252 -2.81767,-14.3301 -0.5,-3.1048 -1.57934,-8.0878 -2.39855,-11.0732 -1.1926,-4.3462 -5.60977,-25.4668 -6.92169,-33.096 -0.15257,-0.8872 -0.42691,-1.7056 -0.60963,-1.8185 -0.46066,-0.2847 -5.87057,1.0968 -6.19323,1.5815 -0.1444,0.2169 0.10593,1.8944 0.55629,3.7278 0.45036,1.8333 1.50425,6.6553 2.342,10.7155 0.83773,4.0602 2.60994,11.5835 3.93824,16.7185 1.42609,5.5129 3.18506,13.9597 4.29535,20.6266 3.23814,19.4439 7.56341,43.6546 8.68844,48.6336 1.57868,6.9865 2.12529,8.5846 3.062,8.9518 1.40908,0.5525 5.297555,0.4419 5.502995,-0.1565 z m 56.77213,-21.9702 c 0,-0.2016 -0.5812,-3.236 -1.29155,-6.7433 -1.79895,-8.882 -2.53292,-13.272 -3.04176,-18.1932 -0.45522,-4.4026 -0.318,-7.076 -1.94745,-8.2223 -1.1606,-0.8164 -3.52852,-0.6093 -6.23726,-0.8267 -2.88519,-0.2315 -6.10399,-0.9048 -10.27985,-2.1502 -14.32495,-4.2723 -17.40743,-4.7748 -22.35135,-3.6433 -5.42433,1.2415 -9.51057,3.4127 -14.450925,7.6784 l -2.4969,2.1559 0,3.7009 c 0,6.274 1.29729,19.7518 2.94921,22.9911 2.264832,4.4413 9.187615,3.6536 19.258225,-2.0359 6.34769,-3.5861 10.83604,-4.4359 17.58615,-3.3296 4.41978,0.7243 10.87563,3.2609 17.30964,6.801 3.85543,2.1213 4.99382,2.5355 4.99382,1.8172 z m 59.33374,-64.3265 c 3.21415,-0.6712 5.57621,-1.5534 9.89759,-3.6967 3.33238,-1.6527 6.84137,-3.0572 8.49854,-3.4016 1.55242,-0.3226 3.64339,-1.0081 4.64658,-1.5234 2.00757,-1.0311 4.90681,-4.4802 4.90681,-5.8373 0,-0.82 -0.22139,-0.8514 -4.45101,-0.6316 -3.13828,0.1631 -5.21945,0.5241 -7.05649,1.224 -2.04059,0.7774 -3.49985,0.9947 -6.7308,1.0024 -4.1232,0.01 -4.12928,0.01 -11.81519,-3.109 -11.6900104,-4.7412 -18.4050008,-6.1717 -29.006501,-6.1792 -5.69972,0 -13.207279,-0.817 -21.710629,-2.3508 -9.64831,-1.7403 -16.89129,-2.1506 -31.48173,-1.7835 -7.16504,0.1803 -14.78605,0.4506 -16.93556,0.6008 l -3.9082,0.2731 0.14816,3.3638 c 0.17405,3.9514 -0.29643,4.4513 -2.75745,2.9304 -0.85015,-0.5255 -3.04302,-1.3295 -4.87305,-1.7868 -1.83003,-0.4574 -4.76733,-1.6218 -6.527325,-2.5878 l -3.19998,-1.7562 -6.75245,0.3088 -6.75245,0.3088 0.27241,1.9875 c 0.14983,1.0931 0.52521,2.2402 0.8342,2.5492 0.30898,0.309 3.32786,1.5287 6.70861,2.7104 3.38076,1.1817 7.47352,2.8141 9.09501,3.6276 1.621505,0.8134 4.999995,2.2126 7.507755,3.1092 2.50777,0.8966 6.49428,2.5989 8.85891,3.7828 4.56785,2.2869 12.2546,5.0091 17.63004,6.2433 3.69593,0.8486 17.2513,1.1741 57.6275092,1.3835 21.8065708,0.1131 23.3422908,0.07 27.3266908,-0.7617 z m 15.66555,-15.4497 c 2.43526,-0.7993 4.71905,-1.1774 8.15864,-1.3506 2.79861,-0.141 5.15624,-0.4782 5.69323,-0.8144 0.5973,-0.3739 1.31549,-1.832 2.06189,-4.186 1.89684,-5.9822 2.15367,-8.1913 1.78305,-15.3368 -0.18583,-3.5825 -0.26036,-7.9792 -0.16564,-9.7705 0.44556,-8.4257 0.57984,-7.84 -3.80281,-16.5855 -2.19102,-4.3721 -4.46833,-9.2418 -5.06069,-10.8214 -1.46549,-3.908 -2.30443,-5.4834 -4.1008,-7.7006 -1.40571,-1.7351 -1.55947,-2.2139 -1.89975,-5.9155 -0.59343,-6.4556 -2.18375,-9.7595 -5.44866,-11.3198 -1.40311,-0.6706 -2.96556,-0.8042 -10.33783,-0.8838 -8.29825,-0.09 -8.82989,-0.1474 -11.9417404,-1.2969 -2.96407,-1.0949 -3.99852,-1.2312 -11.5074904,-1.5157 -4.53786,-0.1719 -8.8007602,-0.5305 -9.4731002,-0.7968 -1.81278,-0.7182 -4.20562,-0.6262 -4.20562,0.1616 0,0.7743 1.39401,1.6617 9.2277102,5.8746 5.39741,2.9026 6.6260304,3.8794 5.64331,4.4868 -0.51941,0.321 -14.2740202,-7.3186 -16.5261402,-9.179 -1.11978,-0.925 -3.705999,-2.4828 -5.747159,-3.4617 -2.04115,-0.9789 -6.11773,-3.5526 -9.05905,-5.7193 -5.76036,-4.2434 -8.71668,-5.8302 -14.15295,-7.5962 -6.32656,-2.0552 -10.14805,-2.5514 -17.58692,-2.2833 -7.52907,0.2713 -11.36675,1.0259 -22.33931,4.3926 -10.7814,3.3081 -12.02086,3.4707 -23.039305,3.023 -12.59613,-0.5118 -18.59912,-0.4614 -29.25482,0.2457 l -8.84531,0.5869 0.28355,2.4293 c 0.81227,6.9592 0.8358,6.9718 13.43602,7.2186 15.08856,0.2956 23.74255,0.6471 27.42027,1.114 1.91068,0.2426 7.968405,1.5973 13.461605,3.0106 5.4932,1.4132 11.9347,2.97 14.31443,3.4594 2.37974,0.4894 5.66213,1.2875 7.2942,1.7735 3.22924,0.9617 6.08675,3.0388 5.2918,3.8464 -0.32332,0.3286 -0.88789,0.1465 -1.92991,-0.6223 -2.30922,-1.7037 -3.28209,-1.4703 -4.06952,0.976 -1.70479,5.2965 -1.94077,9.6592 -0.88248,16.3158 0.955,6.0069 0.70886,9.9225 -0.80747,12.8451 -0.65443,1.2614 -1.18988,2.6851 -1.18988,3.1638 0,0.4787 0.80128,1.7797 1.78062,2.8911 2.49501,2.8315 3.13071,4.2238 2.88857,6.3266 -0.24036,2.0871 -4.88917,12.6133 -6.04696,13.692 -1.23821,1.1536 -4.73841,1.7603 -10.15539,1.7603 -2.72427,0 -9.01135,0.3144 -13.971275,0.6987 -7.84821,0.6082 -9.69403,0.6222 -14.22898,0.1086 -5.15094,-0.5834 -11.70646,-0.6551 -14.43338,-0.1578 -3.23247,0.5894 -2.47201,4.3656 1.25134,6.2137 1.94462,0.9652 2.10723,0.9777 4.55957,0.3521 1.71298,-0.437 6.01564,-0.7399 13.18203,-0.928 5.85145,-0.1536 16.012795,-0.4394 22.580745,-0.635 32.2803,-0.9616 34.5759,-0.9881 40.81904,-0.4708 3.4631,0.287 9.13,1.0129 12.59311,1.6132 10.45016,1.8115 11.15398,1.888 21.277999,2.312 14.20689057,0.5951 17.4328106,1.2972 31.699891,6.8998 7.99832,3.1409 10.05152,3.3469 15.50772,1.5559 z m -122.76625,-7.5216 c 0,-2.1046 -0.46563,-2.4707 -3.58734,-2.821 -3.48561,-0.391 -5.96605,0.051 -5.96605,1.0641 0,0.5809 0.60521,0.9656 2.27979,1.4493 1.25388,0.3622 3.15913,0.9337 4.23389,1.2702 2.96618,0.9285 3.03971,0.9052 3.03971,-0.9626 z m -6.7308,-11.184 c 2.86602,-0.1488 5.55291,-0.4479 5.97087,-0.6646 1.01536,-0.5264 0.95824,-1.5537 -0.26744,-4.8101 -1.44665,-3.8434 -2.44659,-8.5363 -2.44659,-11.4822 0,-1.3821 -0.31958,-4.6655 -0.71018,-7.2965 -0.68258,-4.5975 -0.67413,-5.0975 0.21712,-12.864 1.27017,-11.0681 1.23781,-16.4736 -0.12273,-20.5067 -0.57752,-1.7119 -1.17963,-3.7493 -1.33803,-4.5276 -0.36447,-1.7906 -0.9685,-2.0982 -6.646655,-3.3848 -5.43658,-1.2319 -12.67469,-1.8448 -24.31889,-2.0592 -7.30223,-0.1345 -8.43195,-0.066 -8.75191,0.532 -0.23375,0.4368 0.0197,1.8702 0.69685,3.941 1.43715,4.3949 5.12453,21.2375 6.46422,29.5263 1.42576,8.8212 5.75372,31.222 6.26339,32.4181 0.76449,1.7942 7.24158,2.0996 24.989975,1.1783 z m -27.471965,-0.9732 c 0.17584,-0.1669 -0.55877,-4.7908 -1.63246,-10.2753 -1.07369,-5.4846 -2.62282,-13.9779 -3.44252,-18.874 -0.81969,-4.8961 -1.88059,-10.6607 -2.35754,-12.8102 -0.47696,-2.1495 -1.27419,-5.96 -1.77164,-8.4678 -0.73596,-3.7102 -1.91657,-8.1075 -4.16799,-15.5242 -0.1099,-0.3621 -1.1094,-0.5428 -3.001,-0.5428 -3.25513,0 -3.16893,-0.167 -2.19767,4.2567 0.3512,1.5996 1.91818,10.2717 3.48218,19.2714 1.564,8.9997 3.60441,19.6496 4.53424,23.6664 0.92984,4.0167 2.20666,9.9412 2.83737,13.1655 0.63072,3.2243 1.23662,6.1291 1.34644,6.4551 0.15634,0.4642 0.83468,0.5266 3.12528,0.2877 1.60908,-0.1678 3.06947,-0.4416 3.24531,-0.6085 z m 43.110265,-0.1015 c 2.24913,-0.5664 2.37951,-0.7482 5.33869,-7.4458 2.82556,-6.3951 2.86084,-7.3694 0.36774,-10.1561 -3.37188,-3.7689 -3.54322,-4.7002 -1.58658,-8.6233 1.55159,-3.1109 1.69381,-6.1528 0.62074,-13.2765 -0.77235,-5.1274 -0.55635,-9.6353 0.6955,-14.5152 0.6096,-2.3763 0.66556,-3.1587 0.2564,-3.5851 -0.28786,-0.3001 -3.15324,-1.1109 -6.36751,-1.8019 -3.21427,-0.6911 -7.00196,-1.5596 -8.41708,-1.9301 -1.41512,-0.3705 -2.73414,-0.574 -2.93115,-0.4523 -0.58282,0.3602 -0.41595,1.5412 0.57625,4.0784 1.44333,3.6907 1.56033,10.5256 0.36335,21.2261 -0.93779,8.3834 -0.94935,8.9288 -0.2887,13.6202 0.37851,2.6879 0.77787,6.4504 0.88745,8.361 0.1405,2.4498 0.65845,4.814 1.75682,8.019 0.85666,2.4998 1.55756,4.9587 1.55756,5.4643 0,0.5056 0.13028,1.0495 0.2895,1.2087 0.4575,0.4575 4.7816,0.3372 6.88102,-0.1914 z"
         id="path4151"
         inkscape:connector-curvature="0"
         sodipodi:nodetypes="ccscssssssssssssssssssssssssssssscssssssscsssssssscsscccsssssccssscssscscsssssssssssssssssssssssssssssssssssccsssccscssscsssssssssssssssssssssssssssssssssccsssssssssssssscsssssssssssssssssssssssssssssssssssssssscsssssssscsssssssccccssccssssscsssccssssssssssssssssssssssssssssscssssssssscsscscscccssssssssscsssscsssssssssscsssssssscsssssssssssssssscssssssssssssscccssscsssscccsssssssssssssssssssssssssscsssssssscsssssscsssssscsssssssssssssssssssssssssssssssssssssssscsssssssssssssssssssssssss" />
      <path
         style="fill:#cd7b1c;fill-opacity:1"
         d="m -101.61743,1159.0893 c 0,0 -1.492,0.2123 -3.4322,1.2447 -2.25269,1.1988 -2.86893,3.6186 -1.49414,6.1836 0,0 0.95768,1.6491 1.68052,2.2394 2.47839,2.0241 6.206698,2.2953 8.265628,2.819 7.77718,1.7621 12.75869,2.3201 13.27762,1.4804 0.44219,-0.7155 -1.13303,-3.6854 -3.02176,-5.503 -0.96684,-0.9305 -2.38297,-2.1287 -6.34347,-4.1259 -7.812698,-4.0691 -8.932198,-4.3382 -8.932198,-4.3382 z m -46.13352,92.8697 c -1.65071,-0.6276 -3.14761,-0.8913 -5.00264,0.055 -0.93693,0.4777 -2.29773,0.8391 -3.02344,0.8027 -1.56642,-0.086 -3.03672,-0.1906 -4.54687,-0.2871 l -1.15584,0.866 -0.46479,2.3123 c -0.69621,3.4636 -0.85407,10.8005 -0.37986,14.6456 0.7226,5.8592 2.14718,7.7855 5.81377,8.9808 1.28487,0.4189 3.27041,0.9837 3.48117,1.0655 2.66658,1.0341 9.40172,1.7717 12.16437,1.6546 1.19613,-0.2432 2.04513,-0.789 3.22098,-2.2821 1.21819,-1.5469 0.85485,-1.3784 0.33973,-2.0747 -1.66875,-2.2559 -3.654,-2.9978 -6.61836,-3.2991 -5.78692,-0.588 -6.45733,-0.5118 -7.12378,-4.7925 -0.78543,-5.045 0.91796,-13.5793 2.75042,-15.6839 0.71661,-0.9119 0.5995,-0.6564 0.54514,-1.9626 z m -7.01631,2.2322 c 0.9303,-0.01 0.24096,0.7248 -0.0291,2.0041 -0.16387,0.7762 -0.36281,4.0745 -0.48211,8.2541 -0.18029,6.3168 0.39055,7.6282 -0.19387,8.0794 -0.92946,0.2973 -1.15061,0.4583 -2.23333,0.072 -0.72345,-0.2579 -0.47484,-0.9469 -0.46784,-5.9528 0.008,-5.9467 0.84477,-11.4749 1.83203,-12.1016 0.3019,-0.1917 1.00973,-0.3525 1.57422,-0.3555 z"
         id="path4157"
         inkscape:connector-curvature="0"
         sodipodi:nodetypes="cscscssccsscccsssscssssccscscscccsc" />
      <path
         style="fill:#262323;stroke:#262323;stroke-width:1.0629921;stroke-miterlimit:4;stroke-dasharray:none;stroke-opacity:1"
         d="m -188.30894,1539.4935 c -0.0612,-0.2855 0.52465,-1.6844 1.30186,-3.1088 2.02813,-3.7169 7.53519,-15.9076 8.93973,-19.7895 0.60502,-1.6734 2.46526,-1.8256 5.3666,-0.4399 5.42297,2.5901 10.13681,9.1796 9.70548,13.5675 -0.52417,5.3324 -3.33108,9.4075 -8.00835,11.6264 -4.39458,2.0848 -8.59663,1.7363 -13.42847,-1.1138 -1.20675,-0.7118 -1.70768,-0.8082 -2.31772,-0.4461 -0.90039,0.5344 -1.40154,0.4393 -1.55913,-0.2958 z m 11.41638,1.0768 c 4.56398,0.043 9.07198,-2.3556 10.93413,-5.818 2.45447,-4.5637 0.88411,-9.4601 -4.66004,-14.5308 -3.78202,-3.4589 -5.70089,-3.3366 -7.05145,0.4495 -0.44893,1.2585 -1.93184,4.5876 -3.29532,7.3978 -4.05338,8.3543 -4.24484,8.8155 -3.90008,9.3941 0.77711,1.3038 5.34077,3.0825 7.97276,3.1074 z"
         id="path4151-9"
         inkscape:connector-curvature="0"
         sodipodi:nodetypes="cscsssccccsssscc" />
      <path
         style="fill:#262323;stroke:#262323;stroke-width:1.0629921;stroke-miterlimit:4;stroke-dasharray:none;stroke-opacity:1"
         d="m -149.90273,1551.8413 c -0.91142,-0.7595 -2.09834,-2.1104 -2.63756,-3.002 l -0.9804,-1.6212 1.03744,-7.3141 c 1.09911,-7.7489 2.1761,-11.7967 3.19919,-12.0236 0.50972,-0.1133 0.51517,0.3936 0.0302,2.8051 -0.32563,1.6189 -1.00701,5.7273 -1.51416,9.1299 -0.81918,5.496 -0.85116,6.3588 -0.28657,7.7298 0.962,2.3359 2.81078,3.527 6.43465,4.1458 3.67468,0.6274 4.75184,0.3107 6.74785,-1.9837 1.44052,-1.6559 1.38982,-1.4854 4.51192,-15.1742 0.68839,-3.0183 1.29205,-3.9733 2.11182,-3.3411 0.54066,0.4169 0.0547,3.3851 -1.73266,10.583 -2.46804,9.939 -5.22147,12.4444 -12.8448,11.6876 -1.93786,-0.1909 -2.74979,-0.5154 -4.07683,-1.6213 z"
         id="path4151-9-5"
         inkscape:connector-curvature="0"
         sodipodi:nodetypes="cccscsssccssscc" />
      <path
         style="fill:#262323;stroke:#262323;stroke-width:1.0629921;stroke-miterlimit:4;stroke-dasharray:none;stroke-opacity:1"
         d="m -114.58317,1559.5988 c -0.7047,-0.2819 -1.72754,-0.9476 -2.27301,-1.4794 l -0.99173,-0.9667 0.76697,-11.4228 c 0.54103,-8.0579 0.93235,-11.605 1.32839,-12.0412 0.44383,-0.4889 1.42808,-0.5459 4.69928,-0.2715 7.0752,0.5927 11.179458,3.2846 11.00474,7.218 -0.0776,1.746 -1.06412,3.987 -2.10067,4.7716 -1.05024,0.7951 -0.99192,2.2144 0.16161,3.9327 2.143849,3.1933 1.40359,6.9504 -1.73961,8.8291 -1.72112,1.0287 -6.48009,2.1604 -8.49138,2.0192 -0.59581,-0.041 -1.65988,-0.3066 -2.36456,-0.5886 z m 7.34599,-1.772 c 2.1718,-0.5065 4.21728,-2.1331 4.63033,-3.6821 0.48123,-1.8046 -0.88048,-5.0223 -2.62664,-6.2067 -1.20514,-0.8173 -2.00482,-0.9604 -5.74336,-1.0274 l -4.34327,-0.078 -0.34945,5.1068 -0.34945,5.1071 1.3952,0.707 c 1.47594,0.748 4.37042,0.7765 7.38664,0.073 z m 3.76286,-13.4025 c 1.5227,-1.1963 2.07019,-3.891 1.1814,-5.8145 -0.88494,-1.9151 -4.94764,-3.4641 -9.09535,-3.468 l -2.97772,0 -0.53784,4.2506 c -0.38884,3.0732 -0.40413,4.427 -0.0552,4.8876 0.36428,0.4808 1.68669,0.6905 5.39419,0.8552 4.46906,0.1984 5.0178,0.1347 6.09053,-0.7082 z"
         id="path4151-9-1"
         inkscape:connector-curvature="0"
         sodipodi:nodetypes="cscsssscsccccssccccscccccscsc" />
      <path
         style="fill:#262323;stroke:#262323;stroke-width:1.0629921;stroke-miterlimit:4;stroke-dasharray:none;stroke-opacity:1"
         d="m -83.616229,1558.5699 c -0.232879,-0.3928 -0.56032,-14.9782 -0.433478,-19.3082 0.134477,-4.5902 0.442324,-5.5467 1.449328,-4.5032 0.510341,0.5288 0.585903,1.5379 0.430974,5.7559 -0.197204,5.3689 0.518986,15.2687 1.143725,15.8103 0.200981,0.1741 2.940902,0.1279 6.088701,-0.1028 4.647788,-0.3387 5.778548,-0.3026 6.01735,0.2029 0.161737,0.3424 0.200182,0.7316 0.08545,0.865 -0.269408,0.3131 -14.618648,1.5557 -14.782077,1.2801 z"
         id="path4151-9-5-2"
         inkscape:connector-curvature="0"
         sodipodi:nodetypes="cscscccscc" />
      <path
         style="fill:#262323;stroke:#262323;stroke-width:1.0629921;stroke-miterlimit:4;stroke-dasharray:none;stroke-opacity:1"
         d="m -52.884717,1554.2886 c -0.581753,-0.4778 -0.324526,-0.8864 0.920736,-1.4623 l 1.27276,-0.5888 -0.99732,-7.4441 c -1.75914,-13.1303 -1.693657,-12.9182 -3.79674,-12.2982 -1.342125,0.3957 -1.890042,-0.4701 -0.701814,-1.109 1.409682,-0.7581 6.954274,-2.0522 7.797684,-1.8201 1.29919,0.3575 0.71543,1.6083 -0.89489,1.9173 -0.82247,0.1581 -1.63802,0.456 -1.8123,0.6626 -0.47473,0.5626 0.93016,12.7667 1.89075,16.4247 l 0.8378,3.1902 2.68708,-0.3401 c 2.93875,-0.3708 3.76736,0.3064 1.65331,1.3524 -1.32195,0.6539 -8.425885,1.869 -8.857116,1.5149 z"
         id="path4151-9-5-3"
         inkscape:connector-curvature="0"
         sodipodi:nodetypes="cccssccccsccccc" />
      <path
         style="fill:#262323;stroke:#262323;stroke-width:1.0629921;stroke-miterlimit:4;stroke-dasharray:none;stroke-opacity:1"
         d="m -23.570396,1546.1564 c -2.32203,-5.2892 -6.60731,-18.5775 -6.43629,-19.9584 0.1551,-1.2526 1.89874,-0.5535 7.50456,3.0089 7.711159,4.9003 13.762549,8.3088 14.477749,8.1545 0.4148696,-0.09 0.4340396,-0.4435 0.067,-1.2361 -0.2828996,-0.6109 -1.4236796,-4.4129 -2.53509,-8.4489 -1.1114,-4.036 -2.15163,-7.7021 -2.31162,-8.1469 -0.42642,-1.1853 0.90678,-1.6037 1.52434,-0.4783 0.27555,0.502 1.3178704,3.9352 2.3163004,7.6291 0.9983896,3.6938 2.1450996,7.2077 2.5481896,7.8085 0.86678,1.292 1.9495902,5.9456 1.4869802,6.3907 -0.37391,0.3596 -3.9177298,-1.1162 -5.0118898,-2.0872 -1.5863204,-1.4078 -15.8365294,-9.374 -16.5090494,-9.2289 -0.60256,0.13 -0.6039,0.5693 -0.009,2.8894 0.38606,1.5048 1.53995,5.0663 2.56428,7.9142 1.79002,4.9769 2.08536,6.631 1.21732,6.8183 -0.22224,0.048 -0.62455,-0.4151 -0.89399,-1.0289 z"
         id="path4151-9-5-32"
         inkscape:connector-curvature="0"
         sodipodi:nodetypes="csssssssscccscssc" />
    </g>
    <path
       style="fill:none;fill-rule:evenodd;stroke:#262323;stroke-width:1px;stroke-linecap:round;stroke-linejoin:miter;stroke-opacity:1"
       d="m 197.71285,723.07912 c 0,0 1.00642,-0.55257 2.70219,-0.59434 3.04261,-0.0749 3.24278,0.37584 4.2426,-0.0262 4.88176,-1.96277 6.85568,-0.33873 6.64491,-0.50507"
       id="path4700"
       inkscape:connector-curvature="0"
       sodipodi:nodetypes="cssc" />
    <path
       style="fill:none;fill-rule:evenodd;stroke:none;stroke-width:1px;stroke-linecap:butt;stroke-linejoin:miter;stroke-opacity:1"
       d="m 231.17415,874.42343 4.16688,-0.94702 4.16687,-0.59977 3.53554,19.72954 5.05076,23.23351 6.31345,27.02158 2.77792,19.1929 2.77792,16.28871 2.14658,7.57614 -8.20749,0.63134 -5.55584,-23.86485 -6.43972,-39.14341 z"
       id="path4805"
       inkscape:connector-curvature="0"
       sodipodi:nodetypes="ccccccccccccc" />
  </g>
</svg>
